<?xml version="1.0" encoding="UTF-8" standalone="no"?>
<svg
   xmlns:dc="http://purl.org/dc/elements/1.1/"
   xmlns:cc="http://creativecommons.org/ns#"
   xmlns:rdf="http://www.w3.org/1999/02/22-rdf-syntax-ns#"
   xmlns:svg="http://www.w3.org/2000/svg"
   xmlns="http://www.w3.org/2000/svg"
   xmlns:sodipodi="http://sodipodi.sourceforge.net/DTD/sodipodi-0.dtd"
   xmlns:inkscape="http://www.inkscape.org/namespaces/inkscape"
   version="1.1"
   width="76"
   height="76"
   viewBox="0 0 76.00 76.00"
   enable-background="new 0 0 76.00 76.00"
   xml:space="preserve"
   id="svg2"
   inkscape:version="0.48.4 r9939"
   sodipodi:docname="full.svg"><metadata
     id="metadata10"><rdf:RDF><cc:Work
         rdf:about=""><dc:format>image/svg+xml</dc:format><dc:type
           rdf:resource="http://purl.org/dc/dcmitype/StillImage" /><dc:title /></cc:Work></rdf:RDF></metadata><defs
     id="defs8" /><sodipodi:namedview
     pagecolor="#ffffff"
     bordercolor="#666666"
     borderopacity="1"
     objecttolerance="10"
     gridtolerance="10"
     guidetolerance="10"
     inkscape:pageopacity="0"
     inkscape:pageshadow="2"
     inkscape:window-width="1317"
     inkscape:window-height="744"
     id="namedview6"
     showgrid="false"
     inkscape:zoom="4.3915053"
     inkscape:cx="121.31702"
     inkscape:cy="14.111048"
     inkscape:window-x="49"
     inkscape:window-y="24"
     inkscape:window-maximized="1"
     inkscape:current-layer="svg2" /><path
     style="fill:#f2f2f2"
     d="M 75.366924,50.051138 C 74.496984,32.845597 62.008262,18.472318 44.981217,15.080208 39.967072,14.081295 33.571112,14.258001 28.628396,15.531999 14.344056,19.213826 3.5533862,30.771051 0.87134621,45.260884 c -0.33139,1.790352 -0.65246,4.740718 -0.65271,5.997882 l -1.3e-4,0.684322 7.71002999,0 c 7.4124798,0 7.7130898,-0.01169 7.7892498,-0.302923 0.0738,-0.282237 0.54374,-0.497386 1.58823,-0.727138 0.45637,-0.100386 0.62435,-0.559457 0.62435,-1.706263 0,-0.887952 0.42295,-3.150161 0.81299,-4.348422 2.40575,-7.390807 8.64247,-12.702587 16.171539,-13.773218 6.527509,-0.928207 12.767436,1.204096 17.359768,5.932169 3.157844,3.251183 4.954925,7.179734 5.459969,11.935892 l 0.201296,1.895676 1.086421,0.547113 1.086422,0.547114 7.676907,0 7.676906,0 -0.09566,-1.89195 z M 63.975427,47.666704 c -0.779718,-4.601874 -2.800478,-9.083056 -5.584276,-12.383536 -0.296308,-0.351304 -0.51834,-0.726911 -0.493405,-0.834685 0.04573,-0.197666 4.788617,-4.403701 4.965779,-4.403701 0.176545,0 1.834068,2.139937 2.84609,3.674431 2.794657,4.237443 4.715223,9.544683 5.225488,14.439976 l 0.05035,0.483051 -3.220339,0.341596 c -1.771186,0.187879 -3.287418,0.328549 -3.369403,0.3126 -0.08198,-0.01594 -0.271113,-0.749326 -0.420285,-1.629732 z m -56.2435708,1.277549 -3.03325,-0.291389 0.10565,-0.890905 c 0.68089,-5.741504 3.36357,-12.095788 7.0040798,-16.590058 0.46628,-0.575636 0.93985,-1.037843 1.05238,-1.027127 0.11252,0.01072 1.29861,0.97992 2.63575,2.153788 l 2.43117,2.134304 -0.32473,0.422485 c -3.47657,4.523181 -5.27099,8.498065 -5.95827,13.198449 -0.18097,1.23762 -0.22119,1.331891 -0.53756,1.259783 -0.18808,-0.04287 -1.7069198,-0.209066 -3.3752198,-0.36933 l 0,0 z M 54.550454,31.443327 c -2.06814,-1.744135 -5.404203,-3.600313 -8.128741,-4.522814 -1.704005,-0.576958 -4.097226,-1.112699 -5.828208,-1.304689 -0.509216,-0.05648 -0.923794,-0.151818 -0.921286,-0.211865 0.0025,-0.06005 0.109642,-1.413414 0.238074,-3.007482 0.12843,-1.594067 0.235063,-3.068688 0.236963,-3.276935 0.0034,-0.372517 0.0223,-0.376866 1.170826,-0.269416 5.92078,0.553917 12.198903,3.102125 17.15664,6.963654 0.735199,0.572638 1.31486,1.101106 1.288135,1.174372 -0.106682,0.292477 -4.246636,4.969058 -4.407318,4.978601 -0.09476,0.0056 -0.457046,-0.229914 -0.805085,-0.523426 l 0,0 z M 18.006786,29.467829 c -1.21399,-1.380036 -2.14445,-2.560889 -2.06768,-2.624117 2.2895,-1.885781 3.38684,-2.657797 5.45313,-3.836464 3.81575,-2.176602 8.75874,-3.767882 12.909474,-4.155904 l 1.155239,-0.107995 0.08941,0.699446 c 0.143894,1.125705 0.456149,5.947929 0.389467,6.014611 -0.03352,0.03352 -0.698754,0.140201 -1.4783,0.237071 -4.62612,0.574863 -9.47757,2.640705 -13.1203,5.586877 -0.47306,0.382597 -0.91929,0.695632 -0.99164,0.695632 -0.0723,0 -1.1248,-1.12912 -2.33879,-2.509157 l 0,0 z"
     id="path2987"
     inkscape:connector-curvature="0" /><path
     style="fill:#f2f2f2"
     d="m 38.137997,60.697895 c 0.395308,-0.101108 16.506206,-9.772612 16.421099,-9.85772 -0.03349,-0.03349 -4.387946,-0.236417 -9.676562,-0.450942 l -9.615666,-0.390047 -0.851296,0.416501 c -1.092639,0.534578 -2.202725,1.771128 -2.642992,2.944087 -0.468294,1.247627 -0.394044,3.134963 0.169143,4.299415 0.500085,1.03398 1.629959,2.160691 2.653901,2.646471 0.794923,0.377128 2.753528,0.593998 3.542373,0.392235 l 0,0 z"
     id="path2989"
     inkscape:connector-curvature="0" /><path
     style="fill:#f2f2f2"
     d="M 10.985483,49.285536 C 10.62484,49.224982 8.191025,48.972177 5.7535808,48.742088 5.208663,48.69065 4.7515194,48.641578 4.7377061,48.633041 c -0.025633,-0.01584 0.02882,-0.511883 0.1577999,-1.437484 0.7495579,-5.379073 3.2458435,-11.286592 6.585214,-15.584064 0.412083,-0.530315 0.58822,-0.735723 0.923521,-1.076995 0.346474,-0.352645 0.411389,-0.393844 0.526644,-0.334243 0.262038,0.135505 1.388602,1.083387 3.765302,3.168094 l 1.213385,1.064312 -0.475713,0.631711 c -2.704474,3.591338 -4.230055,6.532316 -5.178063,9.98215 -0.242481,0.882396 -0.414154,1.716383 -0.642451,3.121029 -0.07162,0.440666 -0.149663,0.856317 -0.173426,0.923669 -0.08034,0.227698 -0.129761,0.248831 -0.454436,0.194316 z"
     id="path2983"
     inkscape:connector-curvature="0" /><path
     style="fill:#f2f2f2"
     d="m 19.963795,31.590145 c -1.050289,-1.067476 -2.981628,-3.28639 -3.697174,-4.247683 -0.287655,-0.386447 -0.338457,-0.473311 -0.297735,-0.509086 0.192195,-0.168845 1.646557,-1.317833 2.089912,-1.651091 1.709978,-1.285343 3.976744,-2.606782 6.062842,-3.534406 3.342698,-1.486396 6.941537,-2.465704 10.247055,-2.788407 0.336588,-0.03286 0.714448,-0.0701 0.83969,-0.08276 0.125242,-0.01266 0.230546,-0.0209 0.234009,-0.01832 0.01274,0.0095 0.122574,0.955205 0.164465,1.416138 0.102012,1.122454 0.270436,3.68252 0.316329,4.808243 l 0.01928,0.473057 -0.253188,0.04532 c -0.139253,0.02492 -0.669475,0.104132 -1.178269,0.176016 -1.057297,0.14938 -1.510585,0.227911 -2.234428,0.38711 -3.234743,0.711434 -6.42785,2.075744 -9.208118,3.934327 -0.531497,0.3553 -0.787929,0.542217 -1.608219,1.172251 -0.702389,0.539479 -1.046161,0.782213 -1.107805,0.782213 -0.01737,0 -0.192261,-0.163312 -0.388651,-0.362916 z"
     id="path2985"
     inkscape:connector-curvature="0" /><path
     style="fill:#f2f2f2"
     d="m 55.202911,31.892423 c -0.175604,-0.09387 -0.300487,-0.18575 -0.871201,-0.640954 -2.245488,-1.791013 -5.473035,-3.546257 -8.094552,-4.402078 -1.637154,-0.534466 -3.618992,-0.976388 -5.513058,-1.229334 -0.564512,-0.07539 -0.976422,-0.157603 -1.018324,-0.203252 -0.01247,-0.01359 0.0013,-0.319309 0.03064,-0.679379 0.117786,-1.446108 0.365926,-4.702456 0.399063,-5.236894 0.0335,-0.540248 0.03872,-0.572243 0.104043,-0.637569 0.06741,-0.06741 0.07568,-0.06843 0.416463,-0.05116 0.492653,0.02497 1.571549,0.1471 2.318308,0.262432 4.894796,0.75597 9.862356,2.775302 14.107661,5.734818 1.185887,0.826713 2.511237,1.892725 2.630694,2.115931 0.03586,0.06701 0.03237,0.08213 -0.04185,0.180966 -0.677892,0.902758 -4.199011,4.848649 -4.325575,4.847393 -0.01589,-1.71e-4 -0.07993,-0.02757 -0.14232,-0.06092 l 0,0 z"
     id="path2988"
     inkscape:connector-curvature="0" /><path
     style="fill:#ff6600"
     d="m 64.138918,48.440859 c -0.02376,-0.105673 -0.108654,-0.542171 -0.188662,-0.969996 -0.311801,-1.667285 -0.661061,-2.982253 -1.169344,-4.402592 -1.027856,-2.872227 -2.389392,-5.324418 -4.21181,-7.585668 -0.351676,-0.436358 -0.614962,-0.817534 -0.643656,-0.931858 -0.0095,-0.03782 -9.94e-4,-0.09916 0.01889,-0.136309 0.142642,-0.266529 4.667189,-4.270338 4.893668,-4.330447 0.05852,-0.01553 0.09428,0.0081 0.227712,0.150243 0.64397,0.686191 2.115858,2.670868 2.91073,3.924793 2.182866,3.443512 3.828259,7.603439 4.587842,11.599098 0.150532,0.791849 0.270444,1.62422 0.398779,2.768128 l 0.01197,0.10674 -3.396464,0 -3.396463,0 -0.04319,-0.192132 z"
     id="path2990"
     inkscape:connector-curvature="0" /></svg>