<?xml version="1.0" encoding="UTF-8" standalone="no"?>
<svg
   xmlns:dc="http://purl.org/dc/elements/1.1/"
   xmlns:cc="http://creativecommons.org/ns#"
   xmlns:rdf="http://www.w3.org/1999/02/22-rdf-syntax-ns#"
   xmlns:svg="http://www.w3.org/2000/svg"
   xmlns="http://www.w3.org/2000/svg"
   xmlns:sodipodi="http://sodipodi.sourceforge.net/DTD/sodipodi-0.dtd"
   xmlns:inkscape="http://www.inkscape.org/namespaces/inkscape"
   version="1.1"
   width="76"
   height="76"
   viewBox="0 0 76.00 76.00"
   enable-background="new 0 0 76.00 76.00"
   xml:space="preserve"
   id="svg2"
   inkscape:version="0.48.4 r9939"
   sodipodi:docname="high.svg"><metadata
     id="metadata10"><rdf:RDF><cc:Work
         rdf:about=""><dc:format>image/svg+xml</dc:format><dc:type
           rdf:resource="http://purl.org/dc/dcmitype/StillImage" /><dc:title /></cc:Work></rdf:RDF></metadata><defs
     id="defs8" /><sodipodi:namedview
     pagecolor="#ffffff"
     bordercolor="#666666"
     borderopacity="1"
     objecttolerance="10"
     gridtolerance="10"
     guidetolerance="10"
     inkscape:pageopacity="0"
     inkscape:pageshadow="2"
     inkscape:window-width="1317"
     inkscape:window-height="744"
     id="namedview6"
     showgrid="false"
     showguides="true"
     inkscape:guide-bbox="true"
     inkscape:zoom="12.421053"
     inkscape:cx="41.146393"
     inkscape:cy="45.857724"
     inkscape:window-x="49"
     inkscape:window-y="24"
     inkscape:window-maximized="1"
     inkscape:current-layer="svg2"><sodipodi:guide
       orientation="0,1"
       position="-7.5677966,18.516949"
       id="guide2991" /></sodipodi:namedview><path
     style="fill:#f2f2f2"
     d="M 75.755293,46.43787 C 74.993168,32.181805 66.009431,19.341927 52.866909,13.724977 47.949052,11.623147 43.341504,10.689534 37.892333,10.690726 33.828046,10.691615 30.933662,11.111466 26.989355,12.272277 12.013238,16.679756 0.87141851,30.813602 0.18087951,46.279908 l -0.09526,2.133474 7.73570399,0 c 6.7473605,0 7.7476145,-0.03104 7.8289215,-0.242918 0.105643,-0.275303 0.519709,-0.473655 1.511152,-0.723892 l 0.684322,-0.172721 1.61e-4,-1.000149 c 4.83e-4,-2.154136 0.881701,-5.59593 2.009123,-7.84699 2.630232,-5.251629 7.69216,-9.284864 13.334384,-10.624544 12.158648,-2.886928 23.984475,5.752939 24.864861,18.166095 l 0.09495,1.338778 1.09845,0.553171 1.098509,0.55317 7.757372,0 7.757373,0 -0.10561,-1.975512 z M 64.457032,45.233298 C 63.572297,39.79316 62.043904,36.101675 59.070818,32.224131 58.536846,31.527717 58.09996,30.909914 58.09996,30.851235 c 0,-0.103668 4.565619,-4.159549 4.934054,-4.383182 0.225197,-0.136689 1.579328,1.510124 2.962974,3.603391 2.620854,3.964997 4.744589,9.682568 5.233356,14.089371 l 0.108747,0.980482 -2.875921,0.280954 c -1.581757,0.154523 -2.948379,0.305361 -3.036939,0.335194 -0.615303,0.207279 -0.872903,0.06797 -0.969199,-0.524147 l 0,0 z M 7.2630055,45.411271 c -2.653823,-0.263832 -2.770357,-0.290099 -2.702924,-0.609262 0.03876,-0.183448 0.148532,-0.876974 0.243941,-1.541169 0.451228,-3.141275 1.659024,-6.889857 3.190607,-9.902542 1.001168,-1.969336 3.0290725,-5.064771 4.0886475,-6.240996 l 0.690412,-0.766419 2.495763,2.186699 c 1.372669,1.202686 2.515094,2.239572 2.53872,2.304193 0.02363,0.06462 -0.201691,0.403673 -0.500709,0.753448 -2.853483,3.337857 -5.318704,8.98429 -5.820848,13.332281 l -0.108801,0.942089 -0.670707,-0.0913 C 10.338219,45.728073 8.7883725,45.562916 7.2630055,45.411272 l 0,0 z M 54.557587,27.640914 c -3.742661,-3.050822 -8.714285,-5.075828 -14.049298,-5.72246 -0.68265,-0.08274 -0.75746,-0.130864 -0.691953,-0.445108 0.0404,-0.193785 0.160416,-1.719307 0.266712,-3.390048 l 0.193263,-3.037712 1.303774,0.111011 c 4.671496,0.397759 10.667233,2.541769 14.759557,5.277855 2.154135,1.440233 3.717223,2.724685 3.620975,2.975503 -0.179675,0.468227 -4.341046,5.016558 -4.503747,4.922546 -0.09609,-0.05552 -0.500766,-0.366737 -0.899283,-0.691587 z m -36.544126,-1.762283 -2.265167,-2.568649 1.00846,-0.841132 c 2.351422,-1.961263 6.266105,-4.225504 9.199444,-5.320931 2.620139,-0.978466 5.922638,-1.765137 8.34285,-1.987308 l 1.237224,-0.113575 0.0843,0.541224 c 0.08687,0.557753 0.423262,5.257704 0.421216,5.885172 -9.66e-4,0.298605 -0.117943,0.367924 -0.76598,0.453937 -5.448994,0.723237 -9.997638,2.573596 -13.833002,5.627176 -0.605726,0.482258 -1.115462,0.88041 -1.132749,0.884785 -0.01729,0.0044 -1.050753,-1.147942 -2.296596,-2.560699 l 0,0 z"
     id="path2987"
     inkscape:connector-curvature="0" /><path
     style="fill:#f2f2f2"
     d="m 39.215368,57.261112 c 0.461991,-0.182788 1.16665,-0.636121 1.565908,-1.007409 0.703852,-0.65454 0.833543,-0.9466 4.265207,-9.605186 1.946606,-4.911566 3.515633,-8.95377 3.486728,-8.982675 -0.0289,-0.0289 -3.485563,2.341727 -7.681462,5.268072 -4.937584,3.443617 -7.813029,5.55123 -8.150825,5.974304 -1.085911,1.360056 -1.316022,3.845686 -0.513178,5.5433 0.485572,1.026746 1.614035,2.156634 2.645265,2.648606 1.149757,0.548521 3.21146,0.624258 4.382357,0.160988 l 0,0 z"
     id="path2989"
     inkscape:connector-curvature="0" /><path
     style="fill:#f2f2f2"
     d="M 11.084068,45.819749 C 10.818644,45.774851 9.724193,45.653322 7.6433902,45.437691 5.3985897,45.205065 5.2354967,45.185888 4.9358345,45.119317 4.711204,45.069414 4.5942339,45.01773 4.5714295,44.958303 c -0.00853,-0.02222 0.027283,-0.30769 0.079576,-0.634378 0.052294,-0.326687 0.1417623,-0.894984 0.198819,-1.262882 0.5499428,-3.545991 1.9952279,-7.706959 3.7372101,-10.759409 1.015411,-1.779289 2.384769,-3.83241 3.246348,-4.867352 0.235263,-0.282601 0.925263,-1.053187 0.942911,-1.053034 0.01845,1.59e-4 1.853049,1.606569 3.246286,2.842506 1.221593,1.083672 1.76477,1.589963 1.76477,1.644926 0,0.07465 -0.235851,0.409076 -0.629172,0.892137 -0.210324,0.258311 -0.492715,0.618219 -0.627536,0.799794 -2.295901,3.09209 -4.221632,7.535477 -4.890051,11.283193 -0.0867,0.486086 -0.25765,1.760641 -0.25765,1.920912 0,0.09631 -0.02625,0.101149 -0.298873,0.05503 z"
     id="path2984"
     inkscape:connector-curvature="0" /><path
     style="fill:#f2f2f2"
     d="m 20.194311,28.303826 c -0.255104,-0.26471 -3.858823,-4.32546 -4.406219,-4.965024 -0.0275,-0.03213 -0.0014,-0.05514 0.976174,-0.861901 2.320681,-1.915097 5.860863,-3.995024 8.776793,-5.15654 2.438299,-0.971259 5.971752,-1.855697 8.473517,-2.120955 0.594976,-0.06308 1.412568,-0.135135 1.464497,-0.129058 0.05929,0.0069 0.06467,0.02899 0.134266,0.549704 0.0968,0.72428 0.413218,5.126921 0.413711,5.756356 3.42e-4,0.429263 -0.006,0.43255 -1.171932,0.603766 -4.140931,0.608113 -7.652479,1.827341 -10.826086,3.758875 -0.942427,0.573584 -1.70207,1.111385 -2.905876,2.057259 -0.254608,0.200055 -0.540771,0.424089 -0.635917,0.497853 l -0.172993,0.134116 -0.119935,-0.124451 0,0 z"
     id="path2988"
     inkscape:connector-curvature="0" /><path
     style="fill:#008080"
     d="M 54.341732,27.434722 C 50.55986,24.530289 46.402573,22.804938 41.240649,21.997533 40.5226,21.885218 39.910189,21.75301 39.879735,21.703735 c -0.03045,-0.04927 -0.04123,-0.201385 -0.02396,-0.338024 0.06655,-0.526366 0.433192,-5.626167 0.43605,-6.065172 0.0015,-0.22543 0.163705,-0.230969 1.691857,-0.05775 4.939616,0.559902 10.809804,2.764799 14.853813,5.579229 1.100368,0.765802 2.153575,1.580164 2.646071,2.045998 l 0.47234,0.446772 -0.149173,0.25253 c -0.369556,0.62561 -4.129982,4.677835 -4.336569,4.673077 -0.045,-0.001 -0.552796,-0.363588 -1.128432,-0.80567 l 0,0 z"
     id="path2995"
     inkscape:connector-curvature="0" /></svg>