<?xml version="1.0" encoding="UTF-8" standalone="no"?>
<svg
   xmlns:dc="http://purl.org/dc/elements/1.1/"
   xmlns:cc="http://creativecommons.org/ns#"
   xmlns:rdf="http://www.w3.org/1999/02/22-rdf-syntax-ns#"
   xmlns:svg="http://www.w3.org/2000/svg"
   xmlns="http://www.w3.org/2000/svg"
   xmlns:sodipodi="http://sodipodi.sourceforge.net/DTD/sodipodi-0.dtd"
   xmlns:inkscape="http://www.inkscape.org/namespaces/inkscape"
   version="1.1"
   width="76"
   height="76"
   viewBox="0 0 76.00 76.00"
   enable-background="new 0 0 76.00 76.00"
   xml:space="preserve"
   id="svg2"
   inkscape:version="0.48.4 r9939"
   sodipodi:docname="light.svg"><metadata
     id="metadata10"><rdf:RDF><cc:Work
         rdf:about=""><dc:format>image/svg+xml</dc:format><dc:type
           rdf:resource="http://purl.org/dc/dcmitype/StillImage" /></cc:Work></rdf:RDF></metadata><defs
     id="defs8" /><sodipodi:namedview
     pagecolor="#ffffff"
     bordercolor="#666666"
     borderopacity="1"
     objecttolerance="10"
     gridtolerance="10"
     guidetolerance="10"
     inkscape:pageopacity="0"
     inkscape:pageshadow="2"
     inkscape:window-width="1317"
     inkscape:window-height="744"
     id="namedview6"
     showgrid="false"
     showguides="true"
     inkscape:guide-bbox="true"
     inkscape:zoom="4"
     inkscape:cx="14.913303"
     inkscape:cy="39.479906"
     inkscape:window-x="49"
     inkscape:window-y="24"
     inkscape:window-maximized="1"
     inkscape:current-layer="svg2"><sodipodi:guide
       orientation="0,1"
       position="-7.5677966,18.516949"
       id="guide2991" /></sodipodi:namedview><path
     style="fill:#f2f2f2"
     d="M 0.19122869,46.43787 C 0.95335303,32.181805 9.937091,19.341927 23.079613,13.724977 c 4.917857,-2.10183 9.525405,-3.035443 14.974576,-3.034251 4.064287,8.89e-4 6.958671,0.42074 10.902978,1.581551 14.976117,4.407479 26.117936,18.541325 26.808475,34.007631 l 0.09526,2.133474 -7.735704,0 c -6.74736,0 -7.747614,-0.03104 -7.828921,-0.242918 -0.105643,-0.275303 -0.519709,-0.473655 -1.511152,-0.723892 l -0.684322,-0.172721 -1.61e-4,-1.000149 c -4.83e-4,-2.154136 -0.881701,-5.59593 -2.009123,-7.84699 C 53.461287,33.175083 48.399359,29.141848 42.757135,27.802168 30.598487,24.91524 18.77266,33.555107 17.892274,45.968263 l -0.09495,1.338778 -1.09845,0.553171 -1.098509,0.55317 -7.7573729,0 -7.75737259,0 0.10561018,-1.975512 z M 11.48949,45.233298 c 0.884735,-5.440138 2.413128,-9.131623 5.386214,-13.009167 0.533972,-0.696414 0.970858,-1.314217 0.970858,-1.372896 0,-0.103668 -4.565619,-4.159549 -4.934054,-4.383182 -0.225197,-0.136689 -1.579328,1.510124 -2.9629741,3.603391 -2.620854,3.964997 -4.744589,9.682568 -5.2333563,14.089371 l -0.1087473,0.980482 2.8759217,0.280954 c 1.5817569,0.154523 2.948379,0.305361 3.036939,0.335194 0.615303,0.207279 0.872903,0.06797 0.969199,-0.524147 l 0,0 z m 57.194026,0.177973 c 2.653823,-0.263832 2.770357,-0.290099 2.702924,-0.609262 -0.03876,-0.183448 -0.148532,-0.876974 -0.243941,-1.541169 -0.451228,-3.141275 -1.659024,-6.889857 -3.190607,-9.902542 -1.001168,-1.969336 -3.029072,-5.064771 -4.088647,-6.240996 l -0.690412,-0.766419 -2.495763,2.186699 c -1.372669,1.202686 -2.515094,2.239572 -2.53872,2.304193 -0.02363,0.06462 0.201691,0.403673 0.500709,0.753448 2.853483,3.337857 5.318704,8.98429 5.820848,13.332281 l 0.108801,0.942089 0.670707,-0.0913 c 0.368888,-0.05022 1.918734,-0.215377 3.444101,-0.367021 l 0,0 z M 21.388935,27.640914 c 3.742661,-3.050822 8.714285,-5.075828 14.049298,-5.72246 0.68265,-0.08274 0.75746,-0.130864 0.691953,-0.445108 -0.0404,-0.193785 -0.160416,-1.719307 -0.266712,-3.390048 l -0.193263,-3.037712 -1.303774,0.111011 c -4.671496,0.397759 -10.667233,2.541769 -14.759557,5.277855 -2.154135,1.440233 -3.717223,2.724685 -3.620975,2.975503 0.179675,0.468227 4.341046,5.016558 4.503747,4.922546 0.09609,-0.05552 0.500766,-0.366737 0.899283,-0.691587 z m 36.544126,-1.762283 2.265167,-2.568649 -1.00846,-0.841132 c -2.351422,-1.961263 -6.266105,-4.225504 -9.199444,-5.320931 -2.620139,-0.978466 -5.922638,-1.765137 -8.34285,-1.987308 l -1.237224,-0.113575 -0.0843,0.541224 c -0.08687,0.557753 -0.423262,5.257704 -0.421216,5.885172 9.66e-4,0.298605 0.117943,0.367924 0.76598,0.453937 5.448994,0.723237 9.997638,2.573596 13.833002,5.627176 0.605726,0.482258 1.115462,0.88041 1.132749,0.884785 0.01729,0.0044 1.050753,-1.147942 2.296596,-2.560699 l 0,0 z"
     id="path2987"
     inkscape:connector-curvature="0" /><path
     style="fill:#f2f2f2"
     d="m 36.731154,57.261112 c -0.461991,-0.182788 -1.16665,-0.636121 -1.565908,-1.007409 -0.703852,-0.65454 -0.833543,-0.9466 -4.265207,-9.605186 -1.946606,-4.911566 -3.515633,-8.95377 -3.486728,-8.982675 0.0289,-0.0289 3.485563,2.341727 7.681462,5.268072 4.937584,3.443617 7.813029,5.55123 8.150825,5.974304 1.085911,1.360056 1.316022,3.845686 0.513178,5.5433 -0.485572,1.026746 -1.614035,2.156634 -2.645265,2.648606 -1.149757,0.548521 -3.21146,0.624258 -4.382357,0.160988 l 0,0 z"
     id="path2989"
     inkscape:connector-curvature="0" /><path
     style="fill:#f2f2f2"
     d="M 10.182155,45.663268 C 9.7836377,45.601958 8.4639056,45.458857 7.2494164,45.345266 6.0349274,45.231675 4.9597255,45.088349 4.8600788,45.026763 c -0.4334646,-0.267895 0.6831333,-5.260371 1.8402475,-8.22802 1.3706611,-3.515332 2.580485,-5.765845 4.4462747,-8.270953 1.741861,-2.338715 1.395486,-2.31378 3.722721,-0.267993 1.09727,0.96457 2.18557,1.962897 2.418445,2.218505 l 0.423409,0.464742 -1.420416,2.011914 c -2.319846,3.28589 -3.594621,6.205218 -4.429931,10.144866 -0.215935,1.018432 -0.427747,2.006731 -0.470692,2.196222 -0.09966,0.439725 -0.313724,0.5048 -1.207982,0.367222 z"
     id="path2984"
     inkscape:connector-curvature="0" /><path
     style="fill:#f2f2f2"
     d="M 0.26116612,46.460252 C 0.96960241,33.924801 7.8893864,22.522517 18.717649,16.048022 c 4.212593,-2.518817 8.899144,-4.190634 13.845862,-4.939186 2.283557,-0.345554 8.209571,-0.392003 10.385593,-0.0814 8.178975,1.167443 15.251651,4.585797 21.078978,10.187856 7.073011,6.799589 11.12926,15.531088 11.654815,25.088209 l 0.118618,2.157064 -7.591341,-0.08509 c -7.25772,-0.08135 -7.611643,-0.09926 -8.053324,-0.407376 -0.254091,-0.177256 -0.796263,-0.409827 -1.204827,-0.516826 L 58.209181,47.256724 58.0989,45.795864 c -0.462698,-6.129276 -3.696897,-11.670538 -8.806327,-15.08818 -3.58763,-2.399726 -7.028702,-3.442037 -11.334995,-3.4334 -5.596287,0.01122 -10.241552,1.963309 -14.256996,5.991233 -3.35525,3.365681 -5.121696,7.041625 -5.759183,11.984768 l -0.26695,2.069952 -1.085348,0.546574 -1.085348,0.546572 -7.6764834,0 -7.67648391,0 0.11038043,-1.953131 0,0 z M 11.46058,45.460111 c 0.07883,-0.207351 0.183151,-0.732669 0.231816,-1.167372 l 0.08848,-0.790373 -0.244708,0.966102 c -0.134589,0.531356 -0.306864,1.028642 -0.382833,1.105081 -0.119013,0.11975 -1.6355087,-0.01475 -5.4394017,-0.482443 -0.836532,-0.102853 -0.8453389,-0.109729 -0.8453389,-0.660028 0,-1.02495 0.6538101,-3.804914 1.4870329,-6.32278 1.0493006,-3.170818 2.8178159,-6.703142 4.6169307,-9.221571 1.492695,-2.089499 1.811125,-2.305926 2.545137,-1.729853 0.735026,0.576869 3.81949,3.421766 3.956533,3.649233 0.08148,0.13524 -0.196763,0.672286 -0.778235,1.502108 -0.497779,0.710384 -0.869834,1.291608 -0.826787,1.291608 0.04305,0 0.51676,-0.613028 1.052699,-1.362285 l 0.974432,-1.362286 -0.999041,-0.954091 C 16.347825,29.39641 15.209909,28.37241 14.368595,27.645603 l -1.529661,-1.321464 -0.764397,0.830806 c -2.5274655,2.747044 -5.4279996,8.485466 -6.6462417,13.148938 -0.4118981,1.57676 -0.9519786,4.711572 -0.8323438,4.831206 0.074681,0.07468 5.2454488,0.650504 6.1134935,0.680805 0.499351,0.01743 0.633374,-0.04605 0.751135,-0.355783 z m 56.755077,0.04759 c 1.586859,-0.181065 2.954271,-0.371899 3.038694,-0.424077 0.364286,-0.22514 -0.450688,-4.341486 -1.444768,-7.297364 -0.402072,-1.195551 -1.15596,-3.029751 -1.675308,-4.076001 -0.999255,-2.013045 -3.235833,-5.499556 -4.305799,-6.712134 l -0.639358,-0.724577 -0.378482,0.330858 c -2.694523,2.355478 -4.64543,4.163169 -4.64543,4.304406 0,0.09636 0.316192,0.57823 0.702649,1.070816 1.777765,2.265989 3.536573,5.574085 4.442844,8.356439 0.510322,1.566744 1.134168,4.362931 1.134168,5.083537 0,0.520583 -0.01622,0.520205 3.77079,0.0881 z M 12.086991,42.455756 c 0.0029,-0.147972 -0.04887,-0.116787 -0.13365,0.08051 -0.07611,0.177119 -0.136253,0.466949 -0.13365,0.644068 0.0038,0.258881 0.03001,0.243092 0.13365,-0.08051 0.0709,-0.221399 0.131047,-0.511229 0.13365,-0.644068 z m 0.648801,-2.415255 c 0,-0.152238 -0.05116,-0.122475 -0.138383,0.08051 -0.07611,0.177119 -0.138383,0.43072 -0.138383,0.563559 0,0.152239 0.05116,0.122476 0.138383,-0.08051 0.07611,-0.177119 0.138383,-0.430721 0.138383,-0.56356 z m 0.339736,-0.885593 c 0,-0.08856 -0.07024,-0.05233 -0.156085,0.08051 -0.08585,0.132839 -0.156086,0.313983 -0.156086,0.402542 0,0.08856 0.07024,0.05233 0.156086,-0.08051 0.08585,-0.132839 0.156085,-0.313983 0.156085,-0.402543 z m 0.637588,-1.610169 c 0,-0.08856 -0.103551,0.02013 -0.230114,0.241525 -0.126563,0.221398 -0.230114,0.475 -0.230114,0.563559 0,0.08856 0.103551,-0.02013 0.230114,-0.241525 0.126563,-0.221398 0.230114,-0.475 0.230114,-0.563559 z m 1.13853,-2.173729 c 0.09479,-0.177119 0.136119,-0.322034 0.09184,-0.322034 -0.04428,0 -0.158065,0.144915 -0.252856,0.322034 -0.09479,0.177119 -0.136118,0.322034 -0.09184,0.322034 0.04428,0 0.158065,-0.144915 0.252856,-0.322034 z m 0.483051,-0.805085 c 0.09479,-0.177118 0.136119,-0.322034 0.09184,-0.322034 -0.04428,0 -0.158065,0.144916 -0.252856,0.322034 -0.09479,0.177119 -0.136118,0.322034 -0.09184,0.322034 0.04428,0 0.158065,-0.144915 0.252856,-0.322034 z m 42.58057,-8.602055 c 1.215448,-1.365876 2.217838,-2.543312 2.227534,-2.616525 0.02663,-0.201047 -1.698712,-1.557474 -3.507256,-2.757333 -3.948659,-2.619695 -8.409652,-4.393101 -13.043655,-5.185323 -2.415433,-0.412939 -3.297909,-0.423631 -3.304153,-0.04003 -0.0025,0.154979 -0.106769,1.618234 -0.231658,3.251679 -0.12489,1.633445 -0.194019,3.023379 -0.153623,3.088743 0.07228,0.116947 0.318612,0.172182 3.207665,0.719252 4.041255,0.765249 8.285645,2.729323 11.59322,5.364713 0.442797,0.352809 0.849397,0.645243 0.903555,0.649856 0.05416,0.0046 1.092925,-1.109151 2.308371,-2.475027 l 0,0 z m -35.935331,1.299107 c 3.318566,-2.502923 7.257439,-4.174603 11.823357,-5.017897 1.196961,-0.221071 2.222826,-0.430648 2.279697,-0.465726 0.05687,-0.03508 -4.83e-4,-1.566042 -0.127469,-3.40214 l -0.230871,-3.33836 -1.411677,0.100204 c -3.605052,0.255894 -8.864698,1.934691 -12.698615,4.0532 -2.199103,1.215159 -5.635593,3.740571 -5.635593,4.141491 0,0.393866 4.119166,4.952515 4.47506,4.952515 0.09315,0 0.779899,-0.460479 1.526111,-1.023287 l 0,0 z"
     id="path2986"
     inkscape:connector-curvature="0" /><path
     style="fill:#f2f2f2"
     d=""
     id="path2988"
     inkscape:connector-curvature="0" /><path
     style="fill:#f2f2f2"
     d="M 0.26040358,46.440925 C 1.1168391,31.030276 11.41388,17.553459 26.059147,12.675401 c 11.893773,-3.9615876 24.870169,-1.803104 34.85509,5.797768 1.614736,1.229194 4.501741,4.002556 5.9042,5.67179 5.248594,6.246979 8.373538,13.851046 8.815283,21.450627 0.05148,0.885593 0.129605,1.891006 0.173617,2.234249 l 0.08002,0.624079 -7.613195,-0.07409 c -7.35372,-0.07156 -7.632401,-0.0855 -8.176753,-0.409057 -0.309958,-0.184234 -0.862246,-0.422311 -1.227307,-0.52906 L 58.206355,47.247619 58.094089,45.858044 C 57.52313,38.79101 53.430737,32.693208 47.068069,29.428903 c -2.909977,-1.492936 -5.526047,-2.108934 -8.949474,-2.107304 -2.29675,0.0011 -3.522608,0.149564 -5.474576,0.663055 -5.98173,1.573575 -11.456973,6.571966 -13.520271,12.342757 -0.688418,1.925421 -1.369979,5.278065 -1.373343,6.755558 -3.22e-4,0.109585 -0.505849,0.453759 -1.123553,0.764831 l -1.123099,0.565583 -7.6764834,0 -7.67648391,0 0.10961789,-1.972458 z M 11.365661,45.715122 c 0.04147,-0.06709 0.118381,-0.411266 0.170921,-0.764831 l 0.09553,-0.64284 -0.206385,0.644067 c -0.176684,0.551384 -0.286805,0.658397 -0.765231,0.743635 l -0.558848,0.09957 0.594311,0.0212 c 0.326871,0.01166 0.628238,-0.0337 0.669704,-0.100793 z m 57.829206,-0.346763 2.09322,-0.264799 -0.03342,-0.822278 c -0.09652,-2.374877 -1.540837,-7.249431 -3.088084,-10.422274 -0.934003,-1.915302 -3.330943,-5.680042 -4.41538,-6.934996 l -0.551032,-0.637674 -1.350109,1.185411 c -0.74256,0.651977 -1.883869,1.689433 -2.536243,2.305458 l -1.186133,1.120047 0.536213,0.747471 c 2.103728,2.932568 3.249315,4.973973 4.260294,7.59173 0.573897,1.486008 1.273858,4.106657 1.440451,5.39303 0.05734,0.442796 0.135179,0.90183 0.172963,1.020074 0.07683,0.240445 0.95086,0.187672 4.657261,-0.2812 z M 9.7393581,45.56246 c -0.1992585,-0.03838 -0.5253178,-0.03838 -0.7245763,0 -0.1992585,0.03838 -0.036229,0.06978 0.3622881,0.06978 0.398517,0 0.5615467,-0.0314 0.3622882,-0.06978 z M 8.4109682,45.425533 C 8.2781293,45.396829 7.4170264,45.287205 6.4974063,45.181924 l -1.6720368,-0.19142 0.09142,-1.066103 c 0.1300968,-1.517145 1.1042797,-5.171256 1.9694031,-7.387132 1.0410825,-2.666568 2.6180205,-5.611723 4.1396247,-7.731337 1.539223,-2.144156 1.751893,-2.256219 2.740778,-1.444208 0.994197,0.816374 3.559035,3.202602 3.710882,3.452464 0.07974,0.131216 -0.0033,0.415595 -0.214578,0.734999 l -0.344647,0.520975 0.41505,-0.48305 c 0.228277,-0.265678 0.415409,-0.557984 0.415849,-0.649569 9.66e-4,-0.208347 -1.214886,-1.388425 -3.288397,-3.19155 -1.856876,-1.61474 -1.600932,-1.648192 -3.176078,0.415118 -3.1994937,4.191063 -5.6963478,10.110574 -6.5006954,15.411766 -0.1268179,0.835815 -0.2140028,1.535464 -0.1937443,1.554776 0.080285,0.07653 2.6568097,0.344589 3.3376811,0.347243 0.3985169,0.0016 0.6158898,-0.02066 0.4830508,-0.04936 l 0,0 z M 56.629719,27.360417 c 1.721064,-1.862203 3.46769,-3.909196 3.46769,-4.064028 0,-0.160154 -1.901161,-1.636891 -3.462021,-2.689144 -2.684171,-1.809532 -6.346273,-3.50438 -9.462961,-4.37953 -1.987281,-0.558019 -5.531802,-1.186849 -6.281513,-1.114399 -0.506158,0.04892 -0.520593,0.0723 -0.627246,1.016168 -0.06004,0.531356 -0.160771,2.022233 -0.223844,3.313059 l -0.114681,2.346957 2.317066,0.448839 c 2.82189,0.546629 5.143624,1.288047 7.382368,2.357472 1.679738,0.802393 4.245233,2.417685 5.32029,3.34977 0.309957,0.268738 0.58984,0.491558 0.621961,0.495156 0.03212,0.0036 0.510423,-0.482545 1.062891,-1.08032 l 0,0 z M 22.078343,27.181825 c 3.953705,-2.819493 7.69805,-4.325834 12.860168,-5.173616 1.028441,-0.168902 1.167622,-0.233104 1.169469,-0.539459 0.0012,-0.191257 -0.08567,-1.706321 -0.19295,-3.366808 l -0.195046,-3.019068 -0.652389,0.0032 c -2.849034,0.01393 -8.493672,1.627344 -12.24561,3.500181 -2.31794,1.157035 -6.330571,3.890447 -6.685953,4.554485 -0.121958,0.227879 -0.01137,0.471296 0.52134,1.14747 0.688238,0.873596 3.653908,3.998064 3.794867,3.998064 0.04256,0 0.774303,-0.496998 1.626104,-1.104439 z"
     id="path2990"
     inkscape:connector-curvature="0" /><path
     style="fill:#f2f2f2"
     d="m 6.5139645,37.034293 c 0.00529,-0.01245 0.0532,-0.138122 0.1064688,-0.279263 0.4510944,-1.195221 0.9382828,-2.306844 1.5304546,-3.492055 0.6633176,-1.327607 1.3117683,-2.455429 2.0106801,-3.497087 0.619264,-0.922951 1.304056,-1.851059 1.796132,-2.434323 0.06955,-0.08244 0.136978,-0.162825 0.149833,-0.178628 0.01766,-0.02171 0.03201,-0.02873 0.0587,-0.02873 l 0.03533,0 -0.01845,0.02384 c -0.01015,0.01311 -0.06392,0.07991 -0.119502,0.148438 -0.05558,0.06853 -0.150912,0.190259 -0.211853,0.270516 -0.176759,0.232783 -0.967798,1.310072 -1.158962,1.57835 -1.5595214,2.188622 -2.6780885,4.31052 -3.8815006,7.363122 -0.078553,0.199259 -0.1582137,0.404178 -0.1770246,0.455376 l -0.034202,0.09309 -0.047864,0 c -0.045777,0 -0.047445,-9.87e-4 -0.038248,-0.02264 l 0,0 z"
     id="path2992"
     inkscape:connector-curvature="0" /><path
     style="fill:#f2f2f2"
     d="m 17.593022,31.115487 c 0.06304,-0.08904 0.114952,-0.165534 0.115356,-0.16999 0.0012,-0.01376 -0.449067,-0.504019 -0.587358,-0.639456 -0.181964,-0.178208 -0.662708,-0.624809 -1.078561,-1.001959 -0.488252,-0.442811 -2.020151,-1.802744 -2.282731,-2.026479 -0.392985,-0.334847 -0.648229,-0.491156 -0.858063,-0.525467 -0.06059,-0.0099 -0.0974,-0.0094 -0.163516,0.0024 -0.142195,0.02537 -0.276117,0.110376 -0.447808,0.284249 -0.08157,0.08261 -0.08184,0.0828 -0.115635,0.0828 -0.01863,0 -0.03387,-0.002 -0.03387,-0.0043 0,-0.01055 0.17948,-0.204165 0.316503,-0.341424 0.165415,-0.165699 0.169772,-0.168615 0.289507,-0.193716 0.09627,-0.02018 0.231656,0.0047 0.350873,0.06453 0.112821,0.0566 0.166937,0.09873 0.573059,0.446035 0.628312,0.537325 2.211725,1.934392 2.874868,2.536536 0.46195,0.419459 0.960997,0.93254 1.115098,1.146458 0.08522,0.118293 0.09601,0.155824 0.06639,0.230777 -0.01697,0.04295 -0.0868,0.166891 -0.129576,0.229984 l -0.02774,0.04092 -0.04571,0 -0.04571,0 0.114621,-0.161889 0,0 z"
     id="path2994"
     inkscape:connector-curvature="0" /><path
     style="fill:#f2f2f2"
     d="m 16.965677,32.006907 c 0,-0.0023 0.114861,-0.166943 0.255247,-0.365883 l 0.255247,-0.361708 0.04674,0 0.04674,0 -0.04114,0.05661 c -0.07595,0.104496 -0.144237,0.188074 -0.34715,0.424897 -0.223159,0.260451 -0.215688,0.251928 -0.215688,0.246086 z"
     id="path2996"
     inkscape:connector-curvature="0" /><path
     style="fill:#f2f2f2"
     d="m 16.954083,32.020245 c 6.9e-5,-0.0019 0.0027,-0.0068 0.0059,-0.01099 0.0046,-0.0061 0.0057,-0.0064 0.0057,-0.0015 0,0.0034 -0.0026,0.0083 -0.0059,0.01099 -0.0032,0.0027 -0.0058,0.0033 -0.0057,0.0015 z"
     id="path2998"
     inkscape:connector-curvature="0" /><path
     style="fill:#f2f2f2"
     d=""
     id="path3000"
     inkscape:connector-curvature="0" /><path
     style="fill:#f2f2f2"
     d="m 4.8111097,43.455004 c 0.2663171,-1.82935 0.852805,-4.077042 1.6063442,-6.15625 l 0.087065,-0.240234 0.046397,0 c 0.036171,0 0.045488,0.0024 0.042272,0.01075 -0.027275,0.07108 -0.1639456,0.456184 -0.2346276,0.661127 -0.5971932,1.731565 -1.197542,4.045432 -1.4584313,5.621093 -0.025612,0.154688 -0.048509,0.292676 -0.050882,0.306641 -0.00408,0.02403 -0.00611,0.02539 -0.037859,0.02539 l -0.033545,0 0.033267,-0.228516 z"
     id="path3002"
     inkscape:connector-curvature="0" /><path
     style="fill:#f2f2f2"
     d="m 7.7311096,45.444831 c -0.118164,-0.01234 -0.8652343,-0.08601 -1.6601562,-0.163713 -0.7949219,-0.0777 -1.4482981,-0.144183 -1.4519471,-0.147733 -0.00795,-0.0077 0.1337374,-1.297335 0.1559554,-1.41941 0.00412,-0.02266 0.00726,-0.02488 0.038578,-0.02737 0.030735,-0.0024 0.033735,-0.0012 0.030483,0.01294 -0.00621,0.02696 -0.041142,0.307113 -0.053579,0.429717 -0.042083,0.414833 -0.035465,0.710542 0.018695,0.835309 0.027263,0.06281 0.055861,0.07726 0.2160533,0.109232 0.4210764,0.08403 1.1183624,0.166795 2.7410741,0.325357 0.2664062,0.02603 0.5089844,0.04974 0.5390625,0.05269 l 0.054687,0.0054 -0.066406,0.0052 c -0.146741,0.01144 -0.3437758,0.0053 -0.5625,-0.01755 z"
     id="path3004"
     inkscape:connector-curvature="0" /><path
     style="fill:#f2f2f2"
     d="m 9.2334265,45.600767 c -0.1325554,-0.01448 -0.2422722,-0.02758 -0.2438151,-0.02913 -0.00154,-0.0015 -0.00155,-0.0028 -1.78e-5,-0.0028 0.00153,0 0.02248,-0.0035 0.04655,-0.0078 0.024069,-0.0043 0.065789,-0.01007 0.092711,-0.01282 l 0.048949,-0.005 0.2811287,0.03211 c 0.1546208,0.01766 0.2864021,0.03227 0.2928474,0.03247 0.00878,2.66e-4 0.010231,0.0012 0.00578,0.0038 -0.010563,0.0062 -0.093316,0.01226 -0.1893726,0.01388 l -0.09375,0.0016 -0.2410098,-0.02632 z"
     id="path3006"
     inkscape:connector-curvature="0" /><path
     style="fill:#f2f2f2"
     d="m 10.673199,45.801467 c -0.02686,-0.0071 -0.07473,-0.02104 -0.106386,-0.0309 -0.03166,-0.0099 -0.0764,-0.02107 -0.09943,-0.02491 l -0.04188,-0.007 0.07282,-0.01298 c 0.04005,-0.0071 0.07425,-0.0121 0.076,-0.01102 0.0017,0.0011 0.04536,0.005 0.09692,0.0087 0.107697,0.0077 0.232254,0.0061 0.307829,-0.004 0.206775,-0.02773 0.319866,-0.121213 0.382749,-0.316397 0.02043,-0.06341 0.02042,-0.06338 0.106342,-0.459652 0.07695,-0.354878 0.08043,-0.369349 0.115802,-0.480262 0.02006,-0.0629 0.03696,-0.111792 0.03757,-0.108655 0.0017,0.0088 -0.08642,0.597706 -0.112467,0.751694 -0.04869,0.287859 -0.06995,0.369637 -0.124945,0.480469 -0.03419,0.0689 -0.0686,0.115864 -0.102758,0.140239 -0.0387,0.02762 -0.0996,0.05359 -0.155466,0.0663 -0.05188,0.01181 -0.198574,0.02198 -0.312076,0.02165 -0.09116,-2.68e-4 -0.09213,-3.59e-4 -0.140625,-0.01324 l 0,0 z"
     id="path3008"
     inkscape:connector-curvature="0" /></svg>