<?xml version="1.0" encoding="UTF-8" standalone="no"?>
<svg
   xmlns:dc="http://purl.org/dc/elements/1.1/"
   xmlns:cc="http://creativecommons.org/ns#"
   xmlns:rdf="http://www.w3.org/1999/02/22-rdf-syntax-ns#"
   xmlns:svg="http://www.w3.org/2000/svg"
   xmlns="http://www.w3.org/2000/svg"
   xmlns:sodipodi="http://sodipodi.sourceforge.net/DTD/sodipodi-0.dtd"
   xmlns:inkscape="http://www.inkscape.org/namespaces/inkscape"
   version="1.1"
   width="76"
   height="76"
   viewBox="0 0 76.00 76.00"
   enable-background="new 0 0 76.00 76.00"
   xml:space="preserve"
   id="svg2"
   inkscape:version="0.48.4 r9939"
   sodipodi:docname="light.svg"><metadata
     id="metadata10"><rdf:RDF><cc:Work
         rdf:about=""><dc:format>image/svg+xml</dc:format><dc:type
           rdf:resource="http://purl.org/dc/dcmitype/StillImage" /></cc:Work></rdf:RDF></metadata><defs
     id="defs8" /><sodipodi:namedview
     pagecolor="#ffffff"
     bordercolor="#666666"
     borderopacity="1"
     objecttolerance="10"
     gridtolerance="10"
     guidetolerance="10"
     inkscape:pageopacity="0"
     inkscape:pageshadow="2"
     inkscape:window-width="1317"
     inkscape:window-height="744"
     id="namedview6"
     showgrid="false"
     showguides="true"
     inkscape:guide-bbox="true"
     inkscape:zoom="6.2105263"
     inkscape:cx="13.016053"
     inkscape:cy="40.210346"
     inkscape:window-x="49"
     inkscape:window-y="24"
     inkscape:window-maximized="1"
     inkscape:current-layer="svg2"><sodipodi:guide
       orientation="0,1"
       position="-7.5677966,18.516949"
       id="guide2991" /></sodipodi:namedview><path
     style="fill:#f2f2f2"
     d="M 0.19122869,46.43787 C 0.95335303,32.181805 9.937091,19.341927 23.079613,13.724977 c 4.917857,-2.10183 9.525405,-3.035443 14.974576,-3.034251 4.064287,8.89e-4 6.958671,0.42074 10.902978,1.581551 14.976117,4.407479 26.117936,18.541325 26.808475,34.007631 l 0.09526,2.133474 -7.735704,0 c -6.74736,0 -7.747614,-0.03104 -7.828921,-0.242918 -0.105643,-0.275303 -0.519709,-0.473655 -1.511152,-0.723892 l -0.684322,-0.172721 -1.61e-4,-1.000149 c -4.83e-4,-2.154136 -0.881701,-5.59593 -2.009123,-7.84699 C 53.461287,33.175083 48.399359,29.141848 42.757135,27.802168 30.598487,24.91524 18.77266,33.555107 17.892274,45.968263 l -0.09495,1.338778 -1.09845,0.553171 -1.098509,0.55317 -7.7573729,0 -7.75737259,0 0.10561018,-1.975512 z M 11.48949,45.233298 c 0.884735,-5.440138 2.413128,-9.131623 5.386214,-13.009167 0.533972,-0.696414 0.970858,-1.314217 0.970858,-1.372896 0,-0.103668 -4.565619,-4.159549 -4.934054,-4.383182 -0.225197,-0.136689 -1.579328,1.510124 -2.9629741,3.603391 -2.620854,3.964997 -4.744589,9.682568 -5.2333563,14.089371 l -0.1087473,0.980482 2.8759217,0.280954 c 1.5817569,0.154523 2.948379,0.305361 3.036939,0.335194 0.615303,0.207279 0.872903,0.06797 0.969199,-0.524147 l 0,0 z m 57.194026,0.177973 c 2.653823,-0.263832 2.770357,-0.290099 2.702924,-0.609262 -0.03876,-0.183448 -0.148532,-0.876974 -0.243941,-1.541169 -0.451228,-3.141275 -1.659024,-6.889857 -3.190607,-9.902542 -1.001168,-1.969336 -3.029072,-5.064771 -4.088647,-6.240996 l -0.690412,-0.766419 -2.495763,2.186699 c -1.372669,1.202686 -2.515094,2.239572 -2.53872,2.304193 -0.02363,0.06462 0.201691,0.403673 0.500709,0.753448 2.853483,3.337857 5.318704,8.98429 5.820848,13.332281 l 0.108801,0.942089 0.670707,-0.0913 c 0.368888,-0.05022 1.918734,-0.215377 3.444101,-0.367021 l 0,0 z M 21.388935,27.640914 c 3.742661,-3.050822 8.714285,-5.075828 14.049298,-5.72246 0.68265,-0.08274 0.75746,-0.130864 0.691953,-0.445108 -0.0404,-0.193785 -0.160416,-1.719307 -0.266712,-3.390048 l -0.193263,-3.037712 -1.303774,0.111011 c -4.671496,0.397759 -10.667233,2.541769 -14.759557,5.277855 -2.154135,1.440233 -3.717223,2.724685 -3.620975,2.975503 0.179675,0.468227 4.341046,5.016558 4.503747,4.922546 0.09609,-0.05552 0.500766,-0.366737 0.899283,-0.691587 z m 36.544126,-1.762283 2.265167,-2.568649 -1.00846,-0.841132 c -2.351422,-1.961263 -6.266105,-4.225504 -9.199444,-5.320931 -2.620139,-0.978466 -5.922638,-1.765137 -8.34285,-1.987308 l -1.237224,-0.113575 -0.0843,0.541224 c -0.08687,0.557753 -0.423262,5.257704 -0.421216,5.885172 9.66e-4,0.298605 0.117943,0.367924 0.76598,0.453937 5.448994,0.723237 9.997638,2.573596 13.833002,5.627176 0.605726,0.482258 1.115462,0.88041 1.132749,0.884785 0.01729,0.0044 1.050753,-1.147942 2.296596,-2.560699 l 0,0 z"
     id="path2987"
     inkscape:connector-curvature="0" /><path
     style="fill:#f2f2f2"
     d="m 36.731154,57.261112 c -0.461991,-0.182788 -1.16665,-0.636121 -1.565908,-1.007409 -0.703852,-0.65454 -0.833543,-0.9466 -4.265207,-9.605186 -1.946606,-4.911566 -3.515633,-8.95377 -3.486728,-8.982675 0.0289,-0.0289 3.485563,2.341727 7.681462,5.268072 4.937584,3.443617 7.813029,5.55123 8.150825,5.974304 1.085911,1.360056 1.316022,3.845686 0.513178,5.5433 -0.485572,1.026746 -1.614035,2.156634 -2.645265,2.648606 -1.149757,0.548521 -3.21146,0.624258 -4.382357,0.160988 l 0,0 z"
     id="path2989"
     inkscape:connector-curvature="0" /></svg>