<?xml version="1.0" encoding="UTF-8" standalone="no"?>
<svg
   xmlns:dc="http://purl.org/dc/elements/1.1/"
   xmlns:cc="http://creativecommons.org/ns#"
   xmlns:rdf="http://www.w3.org/1999/02/22-rdf-syntax-ns#"
   xmlns:svg="http://www.w3.org/2000/svg"
   xmlns="http://www.w3.org/2000/svg"
   xmlns:sodipodi="http://sodipodi.sourceforge.net/DTD/sodipodi-0.dtd"
   xmlns:inkscape="http://www.inkscape.org/namespaces/inkscape"
   version="1.1"
   width="76"
   height="76"
   viewBox="0 0 76.00 76.00"
   enable-background="new 0 0 76.00 76.00"
   xml:space="preserve"
   id="svg2"
   inkscape:version="0.48.4 r9939"
   sodipodi:docname="appbar.gauge.50.svg"><metadata
     id="metadata10"><rdf:RDF><cc:Work
         rdf:about=""><dc:format>image/svg+xml</dc:format><dc:type
           rdf:resource="http://purl.org/dc/dcmitype/StillImage" /></cc:Work></rdf:RDF></metadata><defs
     id="defs8" /><sodipodi:namedview
     pagecolor="#ffffff"
     bordercolor="#666666"
     borderopacity="1"
     objecttolerance="10"
     gridtolerance="10"
     guidetolerance="10"
     inkscape:pageopacity="0"
     inkscape:pageshadow="2"
     inkscape:window-width="1317"
     inkscape:window-height="744"
     id="namedview6"
     showgrid="false"
     showguides="true"
     inkscape:guide-bbox="true"
     inkscape:zoom="3.1052632"
     inkscape:cx="-15.457627"
     inkscape:cy="38"
     inkscape:window-x="49"
     inkscape:window-y="24"
     inkscape:window-maximized="1"
     inkscape:current-layer="svg2"><sodipodi:guide
       orientation="0,1"
       position="0.3220339,18.677966"
       id="guide2987" /></sodipodi:namedview><path
     style="fill:#f2f2f2"
     d="M 0.32332922,47.065254 C 0.32732922,42.785746 2.2023232,35.836456 4.5923772,31.242472 14.392711,12.404992 38.120605,5.261033 56.290736,15.677207 c 8.392771,4.811221 14.438336,12.107916 17.429831,21.036936 1.009138,3.012074 1.953889,8.011422 1.956105,10.351111 l 0.0013,1.368644 -7.487288,-0.01024 c -6.073028,-0.0083 -7.605365,-0.09955 -8.112398,-0.483051 -0.34381,-0.260046 -0.876814,-0.47281 -1.184453,-0.47281 -0.443222,0 -0.60059,-0.384432 -0.75801,-1.851695 -0.838142,-7.812154 -6.119169,-14.682546 -13.19854,-17.170745 -7.42626,-2.61012 -15.564486,-0.864894 -20.975021,4.498051 -3.384997,3.355223 -5.590046,7.92379 -6.091617,12.62102 -0.295729,2.769514 -0.643788,2.86947 -9.9917338,2.86947 l -7.55687098,0 0.0013,-1.368644 0,0 z M 12.174776,42.704481 c 0.781703,-3.466232 2.506892,-7.187505 4.648964,-10.027924 l 1.318889,-1.748867 -1.90606,-1.728505 c -2.993988,-2.715089 -3.251719,-2.857075 -3.9837,-2.194641 -1.034229,0.935964 -3.5431358,4.882848 -4.7119598,7.412614 -1.061765,2.298053 -2.461541,7.051931 -2.81745,9.568541 l -0.167925,1.187397 1.828165,0.201065 c 1.005491,0.110586 2.045538,0.247795 2.311216,0.304911 0.265678,0.05711 0.997336,0.120653 1.6259078,0.141199 l 1.142857,0.03736 0.711096,-3.153146 z m 58.082877,2.614812 c 1.150301,-0.174932 1.177037,-0.210456 1.016171,-1.350324 -0.352601,-2.498503 -1.755497,-7.25923 -2.814734,-9.551811 -1.168822,-2.529766 -3.67773,-6.47665 -4.711958,-7.412614 -0.731983,-0.662434 -0.989713,-0.520448 -3.983701,2.194641 l -1.906061,1.728505 1.31889,1.748867 c 2.150832,2.852037 3.866928,6.560215 4.656736,10.062388 l 0.71887,3.187607 2.262201,-0.213801 c 1.244213,-0.117591 2.793827,-0.294649 3.443586,-0.393458 l 0,0 z M 21.257159,27.981226 c 0.797559,-0.961001 5.114788,-3.410014 7.603431,-4.313162 1.395744,-0.506526 3.609354,-1.09959 4.919136,-1.31792 l 2.381425,-0.396964 -0.207928,-3.398292 c -0.11436,-1.869061 -0.24405,-3.429809 -0.288201,-3.468329 -0.166907,-0.14562 -4.344815,0.528423 -6.187281,0.998227 -3.188831,0.813107 -7.116701,2.568986 -9.921412,4.435176 -4.169999,2.774621 -4.095605,2.517279 -1.573037,5.441399 1.179105,1.366799 2.307227,2.489892 2.506938,2.495762 0.199711,0.0059 0.544829,-0.208283 0.766929,-0.475897 l 0,0 z m 36.793039,-2.089701 c 2.494081,-2.842955 2.5687,-2.593463 -1.606528,-5.371563 -2.804709,-1.86619 -6.732579,-3.622069 -9.92141,-4.435176 -1.842469,-0.469804 -6.020375,-1.143847 -6.187282,-0.998227 -0.04415,0.03852 -0.173841,1.599268 -0.288201,3.468329 l -0.207928,3.398292 2.381425,0.396964 c 1.309782,0.21833 3.523392,0.811394 4.919135,1.31792 2.504413,0.908871 6.807297,3.353876 7.614894,4.326973 0.228406,0.27521 0.586675,0.457939 0.796155,0.406063 0.20948,-0.05188 1.334363,-1.181185 2.49974,-2.509575 z"
     id="path2989"
     inkscape:connector-curvature="0" /><path
     style="fill:#f2f2f2"
     d="m 35.374717,56.478979 c -1.231709,-0.650733 -2.323128,-2.114806 -2.698919,-3.620438 -0.168712,-0.675959 0.536268,-3.047098 2.942686,-9.897465 1.740504,-4.954702 3.258333,-8.902147 3.372954,-8.772101 0.114621,0.130047 1.186837,4.181766 2.382702,9.003821 1.508682,6.083418 2.106017,9.040944 1.951248,9.661017 -0.882821,3.536979 -4.766141,5.307607 -7.950671,3.625166 l 0,0 z"
     id="path2991"
     inkscape:connector-curvature="0" /></svg>