<?xml version="1.0" encoding="UTF-8" standalone="no"?>
<svg
   xmlns:dc="http://purl.org/dc/elements/1.1/"
   xmlns:cc="http://creativecommons.org/ns#"
   xmlns:rdf="http://www.w3.org/1999/02/22-rdf-syntax-ns#"
   xmlns:svg="http://www.w3.org/2000/svg"
   xmlns="http://www.w3.org/2000/svg"
   xmlns:sodipodi="http://sodipodi.sourceforge.net/DTD/sodipodi-0.dtd"
   xmlns:inkscape="http://www.inkscape.org/namespaces/inkscape"
   version="1.1"
   width="76"
   height="76"
   viewBox="0 0 76.00 76.00"
   enable-background="new 0 0 76.00 76.00"
   xml:space="preserve"
   id="svg2"
   inkscape:version="0.48.4 r9939"
   sodipodi:docname="wifi.svg"><metadata
     id="metadata10"><rdf:RDF><cc:Work
         rdf:about=""><dc:format>image/svg+xml</dc:format><dc:type
           rdf:resource="http://purl.org/dc/dcmitype/StillImage" /><dc:title /></cc:Work></rdf:RDF></metadata><defs
     id="defs8" /><sodipodi:namedview
     pagecolor="#ffffff"
     bordercolor="#666666"
     borderopacity="1"
     objecttolerance="10"
     gridtolerance="10"
     guidetolerance="10"
     inkscape:pageopacity="0"
     inkscape:pageshadow="2"
     inkscape:window-width="1317"
     inkscape:window-height="744"
     id="namedview6"
     showgrid="false"
     inkscape:zoom="6.2105263"
     inkscape:cx="19.849591"
     inkscape:cy="36.013054"
     inkscape:window-x="49"
     inkscape:window-y="24"
     inkscape:window-maximized="1"
     inkscape:current-layer="svg2" /><path
     style="fill:#f2f2f2"
     d="m 36.235463,59.436256 c -5.02468,-0.32935 -10.304711,-2.576817 -13.870178,-5.903893 l -1.046938,-0.97694 -3.475011,-0.09396 C 13.989374,52.357258 12.599463,52.110384 10.357919,51.131892 2.4072501,47.661211 -1.4879588,38.885072 1.29346,30.709123 3.03963,25.576275 7.5724193,21.468518 12.985364,20.113546 c 1.072303,-0.26842 2.163569,-0.367288 4.857972,-0.440139 l 3.475011,-0.09396 1.051708,-0.981398 c 2.14706,-2.003532 5.687768,-3.998164 8.838344,-4.979023 2.905275,-0.904489 7.160543,-1.226027 10.197198,-0.770528 2.847423,0.427117 6.543228,1.780296 8.898225,3.257988 1.096695,0.688147 3.443487,2.504969 3.971906,3.074945 0.409184,0.44136 0.422324,0.443275 3.051229,0.444271 4.310943,0.0016 6.862031,0.539798 9.625998,2.030665 3.68212,1.986109 6.452317,5.278178 7.830476,9.305645 0.403669,1.179665 0.861722,3.893476 0.861722,5.105417 0,1.21194 -0.458053,3.925754 -0.861722,5.105417 -1.378159,4.027469 -4.148356,7.319535 -7.830476,9.305646 -2.763967,1.490866 -5.315055,2.029035 -9.625998,2.030664 -2.628905,9.95e-4 -2.642045,0.003 -3.051229,0.44427 -0.528419,0.56998 -2.875211,2.3868 -3.971906,3.074948 -4.028302,2.527644 -9.026369,3.738355 -14.068359,3.40787 l 0,0 z M 62.679434,47.451844 c 3.85344,-1.282239 6.730531,-4.189387 7.911503,-7.99415 0.562165,-1.811133 0.560553,-4.947129 -0.0034,-6.780506 -1.181889,-3.841684 -4.138986,-6.800072 -7.992767,-7.996259 -1.260435,-0.39123 -1.345058,-0.394617 -9.861511,-0.394617 -8.445785,0 -8.598212,0.006 -9.068927,0.35404 -1.163237,0.860212 -1.610352,2.458228 -1.992262,7.120526 -0.28933,3.53209 -0.412851,3.990942 -1.163284,4.321343 -0.82468,0.363086 -1.088151,1.115462 -1.480144,4.226743 -0.581672,4.616778 -0.908519,5.798469 -1.869652,6.759603 -0.257101,0.257101 -0.722615,0.550486 -1.034472,0.651965 -0.417418,0.135827 2.854371,0.176806 12.400701,0.155329 l 12.967719,-0.02918 1.186589,-0.39484 z M 16.211351,45.263502 c 0.217638,-0.750835 2.151868,-9.740042 2.250276,-10.458004 0.131196,-0.957183 0.306183,-0.739614 0.469618,0.583893 0.111674,0.904363 1.721289,9.272006 1.900354,9.879077 0.08018,0.271802 0.299654,0.296937 2.220342,0.254269 l 2.131376,-0.04734 2.097004,-8.05185 c 1.153351,-4.42852 2.141807,-8.223483 2.196572,-8.433256 0.09919,-0.380011 0.09208,-0.381402 -1.952956,-0.381402 -1.128892,0 -2.05253,0.02386 -2.05253,0.05303 0,0.02918 -0.336143,1.726414 -0.746984,3.771657 -0.410844,2.045242 -0.920077,4.824692 -1.131634,6.176554 l -0.38465,2.45794 -0.53932,-3.220741 c -0.296626,-1.771414 -0.795705,-4.57473 -1.109064,-6.229596 l -0.569746,-3.008849 -2.135185,0 -2.135185,0 -1.137252,5.721051 c -0.625493,3.14658 -1.135469,5.854542 -1.133279,6.017701 0.0023,0.163155 -0.0723,0.296646 -0.165535,0.296646 -0.09322,0 -0.169514,-0.15026 -0.169514,-0.333915 0,-0.183653 -0.457685,-2.843258 -1.017075,-5.910233 -0.559393,-3.066977 -1.017077,-5.62468 -1.017077,-5.683787 0,-0.153369 -4.2366071,-0.133726 -4.2436667,0.01967 -0.00332,0.06992 0.8882027,3.88396 1.9809359,8.475633 l 1.9867868,8.348498 2.160701,0 c 1.912044,0 2.170597,-0.03414 2.246687,-0.296647 z m 18.244227,-5.805808 0,-6.102454 -1.949396,0 -1.949394,0 0,6.102454 0,6.102457 1.949394,0 1.949396,0 0,-6.102457 z M 33.661536,31.47076 c 0.656581,-0.335778 0.955802,-0.867209 0.959785,-1.704626 0.0073,-1.52579 -1.440034,-2.310176 -3.057532,-1.657083 -1.128476,0.455642 -1.319612,2.206633 -0.336745,3.084903 0.40713,0.363796 0.691039,0.466159 1.292958,0.466159 0.424201,0 0.937892,-0.08521 1.141534,-0.189353 z"
     id="path2989"
     inkscape:connector-curvature="0" /><path
     style="fill:#f2f2f2"
     d="m 46.305323,37.06757 0,-8.348497 5.085382,0 5.08538,0 0,1.567992 0,1.567991 -3.263117,0 -3.263121,0 0,1.949397 0,1.949395 3.051228,0 3.051229,0 0,1.440857 0,1.440857 -3.051229,0 -3.051228,0 0,3.390254 0,3.390253 -1.822261,0 -1.822263,0 0,-8.348499 z"
     id="path3005"
     inkscape:connector-curvature="0" /><path
     style="fill:#f2f2f2"
     d="m 58.764506,39.440747 0,-5.975321 1.82226,0 1.822262,0 0,5.975321 0,5.975322 -1.822262,0 -1.82226,0 0,-5.975322 z"
     id="path3007"
     inkscape:connector-curvature="0" /><path
     style="fill:#f2f2f2"
     d="m 59.92035,31.476635 c -0.67281,-0.239849 -1.150564,-0.935231 -1.153983,-1.679642 -0.0033,-0.721577 0.327475,-1.270357 0.972835,-1.613932 0.435896,-0.232059 1.474642,-0.254574 1.869793,-0.04053 0.980134,0.530922 1.312479,1.764137 0.711711,2.640902 -0.489076,0.713761 -1.513116,1.009493 -2.400356,0.693199 l 0,0 z"
     id="path3009"
     inkscape:connector-curvature="0" /></svg>