<?xml version="1.0" encoding="UTF-8" standalone="no"?>
<svg
   xmlns:dc="http://purl.org/dc/elements/1.1/"
   xmlns:cc="http://creativecommons.org/ns#"
   xmlns:rdf="http://www.w3.org/1999/02/22-rdf-syntax-ns#"
   xmlns:svg="http://www.w3.org/2000/svg"
   xmlns="http://www.w3.org/2000/svg"
   xmlns:sodipodi="http://sodipodi.sourceforge.net/DTD/sodipodi-0.dtd"
   xmlns:inkscape="http://www.inkscape.org/namespaces/inkscape"
   version="1.1"
   width="76"
   height="76"
   viewBox="0 0 76.00 76.00"
   enable-background="new 0 0 76.00 76.00"
   xml:space="preserve"
   id="svg2"
   inkscape:version="0.48.4 r9939"
   sodipodi:docname="zero.svg"><metadata
     id="metadata10"><rdf:RDF><cc:Work
         rdf:about=""><dc:format>image/svg+xml</dc:format><dc:type
           rdf:resource="http://purl.org/dc/dcmitype/StillImage" /></cc:Work></rdf:RDF></metadata><defs
     id="defs8" /><sodipodi:namedview
     pagecolor="#ffffff"
     bordercolor="#666666"
     borderopacity="1"
     objecttolerance="10"
     gridtolerance="10"
     guidetolerance="10"
     inkscape:pageopacity="0"
     inkscape:pageshadow="2"
     inkscape:window-width="1317"
     inkscape:window-height="744"
     id="namedview6"
     showgrid="false"
     inkscape:zoom="6.2105263"
     inkscape:cx="27.962585"
     inkscape:cy="39.095896"
     inkscape:window-x="49"
     inkscape:window-y="24"
     inkscape:window-maximized="1"
     inkscape:current-layer="svg2" /><path
     style="fill:#f2f2f2"
     d="M 0.31416621,50.051138 C 1.1841062,32.845597 13.672828,18.472318 30.699873,15.080208 c 5.014145,-0.998913 11.410105,-0.822207 16.352821,0.451791 14.28434,3.681827 25.07501,15.239052 27.75705,29.728885 0.33139,1.790352 0.65246,4.740718 0.65271,5.997882 l 1.3e-4,0.684322 -7.71003,0 c -7.41248,0 -7.71309,-0.01169 -7.78925,-0.302923 -0.0738,-0.282237 -0.54374,-0.497386 -1.58823,-0.727138 -0.45637,-0.100386 -0.62435,-0.559457 -0.62435,-1.706263 0,-0.887952 -0.42295,-3.150161 -0.81299,-4.348422 -2.40575,-7.390807 -8.64247,-12.702587 -16.171539,-13.773218 -6.527509,-0.928207 -12.767436,1.204096 -17.359768,5.932169 -3.157844,3.251183 -4.954925,7.179734 -5.459969,11.935892 l -0.201296,1.895676 -1.086421,0.547113 -1.086422,0.547114 -7.6769068,0 -7.67690599,0 0.09566,-1.89195 z M 11.705663,47.666704 c 0.779718,-4.601874 2.800478,-9.083056 5.584276,-12.383536 0.296308,-0.351304 0.51834,-0.726911 0.493405,-0.834685 -0.04573,-0.197666 -4.788617,-4.403701 -4.965779,-4.403701 -0.176545,0 -1.834068,2.139937 -2.8460898,3.674431 -2.794657,4.237443 -4.715223,9.544683 -5.225488,14.439976 l -0.05035,0.483051 3.220339,0.341596 c 1.771186,0.187879 3.2874178,0.328549 3.3694028,0.3126 0.08198,-0.01594 0.271113,-0.749326 0.420285,-1.629732 z m 56.243571,1.277549 3.03325,-0.291389 -0.10565,-0.890905 c -0.68089,-5.741504 -3.36357,-12.095788 -7.00408,-16.590058 -0.46628,-0.575636 -0.93985,-1.037843 -1.05238,-1.027127 -0.11252,0.01072 -1.29861,0.97992 -2.63575,2.153788 l -2.43117,2.134304 0.32473,0.422485 c 3.47657,4.523181 5.27099,8.498065 5.95827,13.198449 0.18097,1.23762 0.22119,1.331891 0.53756,1.259783 0.18808,-0.04287 1.70692,-0.209066 3.37522,-0.36933 l 0,0 z M 21.130636,31.443327 c 2.06814,-1.744135 5.404203,-3.600313 8.128741,-4.522814 1.704005,-0.576958 4.097226,-1.112699 5.828208,-1.304689 0.509216,-0.05648 0.923794,-0.151818 0.921286,-0.211865 -0.0025,-0.06005 -0.109642,-1.413414 -0.238074,-3.007482 -0.12843,-1.594067 -0.235063,-3.068688 -0.236963,-3.276935 -0.0034,-0.372517 -0.0223,-0.376866 -1.170826,-0.269416 -5.92078,0.553917 -12.198903,3.102125 -17.15664,6.963654 -0.735199,0.572638 -1.31486,1.101106 -1.288135,1.174372 0.106682,0.292477 4.246636,4.969058 4.407318,4.978601 0.09476,0.0056 0.457046,-0.229914 0.805085,-0.523426 l 0,0 z m 36.543668,-1.975498 c 1.21399,-1.380036 2.14445,-2.560889 2.06768,-2.624117 -2.2895,-1.885781 -3.38684,-2.657797 -5.45313,-3.836464 -3.81575,-2.176602 -8.75874,-3.767882 -12.909474,-4.155904 l -1.155239,-0.107995 -0.08941,0.699446 c -0.143894,1.125705 -0.456149,5.947929 -0.389467,6.014611 0.03352,0.03352 0.698754,0.140201 1.4783,0.237071 4.62612,0.574863 9.47757,2.640705 13.1203,5.586877 0.47306,0.382597 0.91929,0.695632 0.99164,0.695632 0.0723,0 1.1248,-1.12912 2.33879,-2.509157 l 0,0 z"
     id="path2987"
     inkscape:connector-curvature="0" /><path
     style="fill:#f2f2f2"
     d="m 37.543093,60.697895 c -0.395308,-0.101108 -16.506206,-9.772612 -16.421099,-9.85772 0.03349,-0.03349 4.387946,-0.236417 9.676562,-0.450942 l 9.615666,-0.390047 0.851296,0.416501 c 1.092639,0.534578 2.202725,1.771128 2.642992,2.944087 0.468294,1.247627 0.394044,3.134963 -0.169143,4.299415 -0.500085,1.03398 -1.629959,2.160691 -2.653901,2.646471 -0.794923,0.377128 -2.753528,0.593998 -3.542373,0.392235 l 0,0 z"
     id="path2989"
     inkscape:connector-curvature="0" /></svg>